<svg id="vuesax_bold_menu" data-name="vuesax/bold/menu" xmlns="http://www.w3.org/2000/svg" width="18.797" height="18.797" viewBox="0 0 18.797 18.797">
  <g id="menu">
    <path id="Vector" d="M0,0H18.8V18.8H0Z" fill="none" opacity="0"/>
    <path id="Vector-2" data-name="Vector" d="M4.637,2.318A2.318,2.318,0,1,1,2.318,0,2.318,2.318,0,0,1,4.637,2.318Z" transform="translate(11.419 2.263)" fill="#292d32"/>
    <path id="Vector-3" data-name="Vector" d="M4.637,2.318A2.318,2.318,0,1,1,2.318,0,2.318,2.318,0,0,1,4.637,2.318Z" transform="translate(2.741 2.263)" fill="#292d32"/>
    <path id="Vector-4" data-name="Vector" d="M4.637,2.318A2.318,2.318,0,1,1,2.318,0,2.318,2.318,0,0,1,4.637,2.318Z" transform="translate(11.419 11.897)" fill="#292d32"/>
    <path id="Vector-5" data-name="Vector" d="M4.637,2.318A2.318,2.318,0,1,1,2.318,0,2.318,2.318,0,0,1,4.637,2.318Z" transform="translate(2.741 11.897)" fill="#292d32"/>
  </g>
</svg>
