<svg id="vuesax_linear_task-square" data-name="vuesax/linear/task-square" xmlns="http://www.w3.org/2000/svg" width="20" height="20" viewBox="0 0 20 20"><g id="task-square"><path id="Vector" d="M0 0H4.376" transform="translate(8.093 5.809)" fill="none" stroke="#fff" stroke-linecap="round" stroke-linejoin="round" stroke-width="1.528565059550347"/><path id="Vector-2" data-name="Vector" d="M0 1.25l0.625 0.625L2.5 0" transform="translate(4.174 4.828)" fill="none" stroke="#fff" stroke-linecap="round" stroke-linejoin="round" stroke-width="1.528565059550347"/><path id="Vector-3" data-name="Vector" d="M0 0H4.376" transform="translate(8.093 10.389)" fill="none" stroke="#fff" stroke-linecap="round" stroke-linejoin="round" stroke-width="1.528565059550347"/><path id="Vector-4" data-name="Vector" d="M0 1.25l0.625 0.625L2.5 0" transform="translate(4.174 9.407)" fill="none" stroke="#fff" stroke-linecap="round" stroke-linejoin="round" stroke-width="1.528565059550347"/><path id="Vector-5" data-name="Vector" d="M5.833 16.666H10.827c4.167 0 5.833 -1.666 5.833 -5.833V5.833C16.666 1.666 15 0 10.827 0H5.833C1.666 0 0 1.666 0 5.833V10.827C0 15 1.666 16.666 5.833 16.666Z" transform="translate(1.308 1.308)" fill="none" stroke="#fff" stroke-linecap="round" stroke-linejoin="round" stroke-width="1.528565059550347"/><path id="Vector-6" data-name="Vector" d="M0 0H19.999V19.999H0Z" fill="none" opacity="0"/></g></svg>