<svg xmlns="http://www.w3.org/2000/svg" width="19" height="21" viewBox="0 0 19 21"><g data-name="Mask Group 6" transform="translate(-125.764 -667.591)" clip-path="url(#a)"><g transform="translate(126 668.643)" fill="#bababa"><ellipse data-name="Ellipse 72" cx="1.177" cy="1.206" rx="1.177" ry="1.206" transform="translate(4.118 8.44)"/><ellipse data-name="Ellipse 74" cx="1.177" cy="1.206" rx="1.177" ry="1.206" transform="translate(8.236 8.44)"/><ellipse data-name="Ellipse 73" cx="1.177" cy="1.206" rx="1.177" ry="1.206" transform="translate(12.355 8.44)"/><path data-name="Path 2722" d="M9.413 18.085a8.34 8.34 0 0 1-8.236-8.44 8.34 8.34 0 0 1 8.236-8.439 8.34 8.34 0 0 1 8.236 8.44 8.349 8.349 0 0 1-8.236 8.439Zm0-15.673a7.148 7.148 0 0 0-7.06 7.234 7.148 7.148 0 0 0 7.06 7.234 7.148 7.148 0 0 0 7.06-7.234 7.157 7.157 0 0 0-7.06-7.234Z"/></g></g></svg>