<svg xmlns="http://www.w3.org/2000/svg" width="20.354" height="20.354" viewBox="0 0 20.354 20.354">
  <g id="Group_1926" data-name="Group 1926" transform="translate(-28 -439)">
    <path id="Vector" d="M2.748,15.011a1.491,1.491,0,0,1,2.366.127l.857,1.145a1.474,1.474,0,0,0,2.485,0l.857-1.145a1.491,1.491,0,0,1,2.366-.127c1.51,1.611,2.739,1.077,2.739-1.179V4.274c0-3.418-.8-4.274-4-4.274H4C.8,0,0,.857,0,4.274v9.549C.008,16.088,1.247,16.614,2.748,15.011Z" transform="translate(30.958 440.5)" fill="none" stroke="#dcd7fe" stroke-linecap="round" stroke-linejoin="round" stroke-width="1.5"/>
    <path id="Vector-2" data-name="Vector" d="M0,0H4.664" transform="translate(35.845 449.5)" fill="none" stroke="#dcd7fe" stroke-linecap="round" stroke-linejoin="round" stroke-width="1.5"/>
    <path id="Vector-3" data-name="Vector" d="M0,0H20.354V20.354H0Z" transform="translate(28 439)" fill="none" opacity="0"/>
  </g>
</svg>
